<svg id="Capa_1" enable-background="new 0 0 512 512" height="512" viewBox="0 0 512 512" width="512" xmlns="http://www.w3.org/2000/svg"><g><g><g><path d="m0 244.6v-99.8l166.206-34.793 89.516 20.74 89.899 20.829 166.379-41.569v363.979l-166.379 35.031-96.871-17.288z" fill="#eaf6fc"/></g><g><path d="m345.621 151.576-13.616 212.94 13.616 144.501 166.379-35.031v-363.979z" fill="#b2dcfd"/></g><g><path d="m166.206 110.007 179.415 41.569v357.442l-179.451-32.027z" fill="#dbeffa"/></g><g><path d="m345.621 151.576-89.621-20.771v362.225l89.621 15.987z" fill="#cbe8f8"/></g></g><g><path d="m191.833 395.033-46.777-23.879c-16.826-8.589-29.654-23.095-36.121-40.845l-6.217-17.066c-14.958-41.057-54.367-68.643-98.065-68.643h-4.653v267.4l166.17-35.009 82.58 14.738v-3.738c0-39.416-21.809-75.036-56.917-92.958z" fill="#97de3d"/></g><g><path d="m191.833 395.033-25.654-13.096-.01 95.055 82.58 14.738v-3.738c.001-39.417-21.808-75.037-56.916-92.959z" fill="#59c36a"/></g><g><path d="m392.973 232.247c11.978 11.978 18.574 27.903 18.574 44.843 0 51.445 41.854 93.298 93.299 93.298h7.154v-260.381l-144.077 35.997-8.727 52.467z" fill="#00a66c"/></g><g><path d="m256 348.816s-129.124-115.561-129.124-219.692c0-71.199 57.925-129.124 129.124-129.124s129.124 57.925 129.124 129.124c0 97.274-129.124 219.692-129.124 219.692z" fill="#fc445f"/></g><g><path d="m256 0v348.816s129.124-122.418 129.124-219.692c0-71.199-57.925-129.124-129.124-129.124z" fill="#e1105a"/></g><g><path d="m256 191.757c-34.443 0-62.465-28.021-62.465-62.465s28.022-62.465 62.465-62.465 62.465 28.022 62.465 62.465-28.022 62.465-62.465 62.465z" fill="#e1105a"/></g><g><path d="m256 66.827v124.929c34.443 0 62.465-28.021 62.465-62.465 0-34.442-28.022-62.464-62.465-62.464z" fill="#a1073d"/></g></g></svg>